<?xml version="1.0" encoding="UTF-8"?>
<svg id="Layer_1" xmlns="http://www.w3.org/2000/svg" version="1.1" viewBox="0 0 5000.15 1550">
  <!-- Generator: Adobe Illustrator 30.1.0, SVG Export Plug-In . SVG Version: 2.1.1 Build 136)  -->
  <defs>
    <style>
      .st0 {
        fill: #58b947;
      }

      .st1 {
        fill: #004376;
      }
    </style>
  </defs>
  <g>
    <g>
      <path class="st0" d="M509.39,1060.13c-108.77-22.4-221.94-84.82-302.88-161.07-56.29-53.03-107.91-111.97-149.27-180.35,47.03,43.02,83.05,90.01,134.5,125.11,61.72,42.11,125.91,77.42,196.91,100.25,108.13,34.77,219.5,37.97,329.14,9.99,90.41-23.08,153.05-57.88,226.8-113.52,32.56-24.56,59.03-51.12,85.39-82.25,101.97-120.47,161.71-269.46,167.08-428.33l-109.81-.5,40.26-61.47L1305.95,0l91.7,139.04,123.02,191.95-21.48.56-82.53.26-2.14,30.48c-8.01,113.93-63.66,258.26-123.39,356.51-45.69,75.15-103.59,139.42-171.64,194.34-124.79,100.71-276.15,158.52-436.93,163.63-58.42,1.86-115.85-4.83-173.19-16.64Z"/>
      <path class="st1" d="M192.04,782.14c-2.41-11.53.55-21.23.56-32.54l.24-412.44c31.28-2.8,61.37-3,91.73-2.28l.83,505.98c-34.1-17.53-61.71-37.8-93.36-58.72Z"/>
      <path class="st1" d="M1135.99,387.91c-16.47,124.97-58.92,221.58-133.21,317.6-12.87,16.63-27.38,29.25-41.51,44.35-85.79,91.67-185.79,137.45-308.2,162.66-104.5,14.69-198.98-.06-297.1-37.36l-.53-664.17c85.44,6.36,166.85,21.11,249.54,38.66,58.33,12.38,112.4,27.19,168.49,47.32,74.38,26.02,144.75,57.35,211.35,99.09,6.89,4.32,11.67,10.36,19.58,4.18,3.81-12.7,14.25-11.97,24.64-12l106.95-.32ZM658.77,851.87l80.38-18.98c-30.47-30.19-57.04-57.58-82.32-90.04,84.22-12.22,134.55-51.3,159.13-127.88l64.42-.84,20.7-55.14-82.86-1.25c-2.27-26.46-13.44-45.41-29.11-69.08l103.09-.24c1.72-20.09,2.04-37.96.83-57.24l-326.82-1.38-10.92,58.47c87.85,11.25,134.36-22.74,185,68.13l-167.92,2.24-21.75,55.89,178.49,1.86c26.12.27-18.91,63.12-81.63,70.2-27.53,3.11-53.02,3.09-81.08,3.27l-1.17,61.89c33,31.75,61.72,64.85,93.53,100.13Z"/>
    </g>
    <g>
      <path class="st1" d="M361.09,1177.17l-.18-107.82c96.81,38.23,196.01,64.56,300.52,64.13,123.26-.51,244.64-31.78,353.58-87.11,57.63-29.28,109.93-62.76,158.22-104.91,121.5-106.08,217.74-251.83,262.26-407.47,13.75-48.91,24.45-95.12,32.25-146.5l148.9,1.83-93.5-163.14,114.27-17.82-1.82,163.73-2.17,127.19-.24,675.96c-159.73,28.97-317.32,74.25-462.81,149.3-57.26,31.06-132.14,77.33-174.12,130.05-44.85-49.97-97.32-88.74-155.4-120.48-30.35-16.59-58.53-31.53-90.69-45.37-124.36-53.5-253.95-89.65-389.04-111.56Z"/>
      <path class="st1" d="M1199.95,1383.1c157.68-77.46,329.58-119.63,503.91-146.72l1.59-112.66.97-52.28.53-116.45-2.22-28.73.79-452.48c.04-25.37,3.48-49.12,1.38-74.28-1.83-21.91-2.95-41.89-2.24-65.18l92.73-.46-.55,407.16.34,592.85c-122.6,8.36-241.21,29.07-359.8,57.18-104.33,24.73-204.61,54.99-302.69,97.52-42.93,17.88-81.32,38.48-122.38,61.43,46.57-74.69,112.35-128.98,187.63-166.9Z"/>
      <path class="st1" d="M682.84,1335.57c100.49,40.63,201.3,85.36,265.88,175.49l27.07,37.77c-97.49-54.27-196.85-98.21-303.69-128.52-157.43-44.67-317.49-72.97-480.34-87.09-.04-5.74.34-10.02,1.17-15.85l-.12-356.43c31.2,26.17,61.32,47.28,95.13,67.9l-.62,207.85c138.1,22.63,264.84,48.84,395.52,98.88Z"/>
    </g>
  </g>
  <g>
    <path class="st1" d="M1904.82,589.41c31.71-4.79,69.39-8.38,110.67-8.38,74.78,0,128.02,17.35,163.31,50.25,35.89,32.9,56.83,79.56,56.83,144.77s-20.34,119.64-58.03,156.73c-37.69,37.69-99.9,58.03-178.27,58.03-37.09,0-68.2-1.79-94.52-4.79v-396.62ZM1956.86,945.95c13.16,2.39,32.3,2.99,52.64,2.99,111.27,0,171.69-62.21,171.69-171.09.6-95.12-53.24-155.54-163.31-155.54-26.92,0-47.26,2.39-61.02,5.38v318.25Z"/>
    <path class="st1" d="M2461.75,987.23l-4.19-36.49h-1.79c-16.15,22.73-47.26,43.07-88.54,43.07-58.63,0-88.54-41.28-88.54-83.15,0-69.99,62.22-108.28,174.08-107.68v-5.98c0-23.93-6.58-67-65.8-67-26.92,0-55.04,8.38-75.38,21.54l-11.96-34.7c23.93-15.55,58.63-25.72,95.12-25.72,88.54,0,110.07,60.42,110.07,118.45v108.28c0,25.12,1.2,49.65,4.79,69.39h-47.86ZM2453.97,839.46c-57.43-1.2-122.64,8.97-122.64,65.21,0,34.1,22.73,50.25,49.65,50.25,37.69,0,61.62-23.93,69.99-48.46,1.79-5.38,2.99-11.37,2.99-16.75v-50.25Z"/>
    <path class="st1" d="M2648.39,616.33c.6,17.95-12.56,32.3-33.5,32.3-18.54,0-31.71-14.36-31.71-32.3s13.76-32.9,32.9-32.9,32.3,14.36,32.3,32.9ZM2589.76,987.23v-289.54h52.64v289.54h-52.64Z"/>
    <path class="st1" d="M2729.74,562.49h52.64v424.74h-52.64v-424.74Z"/>
    <path class="st1" d="M2890.06,697.69l63.41,171.09c6.58,19.14,13.76,41.88,18.54,59.22h1.2c5.38-17.35,11.37-39.48,18.54-60.42l57.43-169.89h55.63l-78.97,206.39c-37.69,99.3-63.41,150.15-99.3,181.26-25.72,22.73-51.45,31.71-64.61,34.1l-13.16-44.27c13.16-4.19,30.51-12.56,46.06-25.72,14.36-11.37,32.3-31.71,44.27-58.63,2.39-5.38,4.19-9.57,4.19-12.56s-1.2-7.18-3.59-13.76l-107.08-266.81h57.43Z"/>
    <path class="st1" d="M3281.28,584.02h52.04v359.53h172.29v43.67h-224.33v-403.2Z"/>
    <path class="st1" d="M3582.78,852.03c1.2,71.19,46.66,100.5,99.3,100.5,37.69,0,60.42-6.58,80.16-14.96l8.97,37.69c-18.54,8.38-50.25,17.95-96.31,17.95-89.13,0-142.38-58.63-142.38-145.97s51.45-156.14,135.8-156.14c94.52,0,119.64,83.15,119.64,136.39,0,10.77-1.2,19.14-1.79,24.53h-203.4ZM3737.12,814.34c.6-33.5-13.76-85.55-72.98-85.55-53.24,0-76.57,49.05-80.76,85.55h153.74Z"/>
    <path class="st1" d="M4103.22,562.49v349.96c0,25.72.6,55.04,2.39,74.78h-47.26l-2.39-50.25h-1.2c-16.15,32.3-51.45,56.83-98.71,56.83-69.99,0-123.83-59.22-123.83-147.16-.6-96.31,59.22-155.54,129.81-155.54,44.27,0,74.18,20.94,87.34,44.27h1.2v-172.89h52.64ZM4050.58,815.54c0-6.58-.6-15.55-2.39-22.13-7.78-33.5-36.49-61.02-75.97-61.02-54.44,0-86.74,47.86-86.74,111.87,0,58.62,28.71,107.08,85.55,107.08,35.29,0,67.6-23.33,77.17-62.81,1.79-7.18,2.39-14.36,2.39-22.73v-50.25Z"/>
    <path class="st1" d="M4440.02,697.69c-1.2,20.94-2.39,44.27-2.39,79.56v168.1c0,66.4-13.16,107.08-41.28,132.21-28.12,26.32-68.79,34.7-105.29,34.7s-72.98-8.38-96.31-23.93l13.16-40.08c19.14,11.96,49.05,22.73,84.95,22.73,53.84,0,93.32-28.12,93.32-101.1v-32.3h-1.2c-16.15,26.92-47.26,48.46-92.13,48.46-71.79,0-123.23-61.02-123.23-141.18,0-98.11,64.01-153.74,130.41-153.74,50.25,0,77.77,26.32,90.33,50.25h1.2l2.39-43.67h46.06ZM4385.58,811.95c0-8.97-.6-16.75-2.99-23.93-9.57-30.51-35.29-55.63-73.58-55.63-50.25,0-86.14,42.47-86.14,109.48,0,56.83,28.71,104.09,85.55,104.09,32.3,0,61.62-20.34,72.98-53.84,2.99-8.97,4.19-19.14,4.19-28.12v-52.05Z"/>
    <path class="st1" d="M4554.27,852.03c1.2,71.19,46.66,100.5,99.3,100.5,37.69,0,60.42-6.58,80.16-14.96l8.97,37.69c-18.54,8.38-50.25,17.95-96.31,17.95-89.14,0-142.38-58.63-142.38-145.97s51.45-156.14,135.8-156.14c94.52,0,119.64,83.15,119.64,136.39,0,10.77-1.2,19.14-1.79,24.53h-203.39ZM4708.61,814.34c.6-33.5-13.76-85.55-72.98-85.55-53.24,0-76.57,49.05-80.76,85.55h153.74Z"/>
    <path class="st1" d="M4824.65,788.02c0-34.1-.6-63.41-2.39-90.33h46.06l1.79,56.83h2.39c13.16-38.88,44.87-63.41,80.16-63.41,5.98,0,10.17.6,14.96,1.79v49.65c-5.38-1.2-10.77-1.79-17.95-1.79-37.09,0-63.41,28.12-70.59,67.6-1.2,7.18-2.39,15.55-2.39,24.53v154.34h-52.05v-199.21Z"/>
  </g>
</svg>