<?xml version="1.0" encoding="UTF-8"?>
<svg id="Layer_1" xmlns="http://www.w3.org/2000/svg" version="1.1" viewBox="0 0 1800 1800">
  <!-- Generator: Adobe Illustrator 30.1.0, SVG Export Plug-In . SVG Version: 2.1.1 Build 136)  -->
  <defs>
    <style>
      .st0 {
        fill: #58b947;
      }

      .st1 {
        fill: #004376;
      }
    </style>
  </defs>
  <g>
    <path class="st0" d="M471.39,1185.13c-108.77-22.4-221.94-84.82-302.88-161.07-56.29-53.03-107.91-111.97-149.27-180.35,47.03,43.02,83.05,90.01,134.5,125.11,61.72,42.11,125.91,77.42,196.91,100.25,108.13,34.77,219.5,37.97,329.14,9.99,90.41-23.08,153.05-57.88,226.8-113.52,32.56-24.56,59.03-51.12,85.39-82.25,101.97-120.47,161.71-269.46,167.08-428.33l-109.81-.5,40.26-61.47,178.47-267.98,91.7,139.04,123.02,191.95-21.48.56-82.53.26-2.14,30.48c-8.01,113.93-63.66,258.26-123.39,356.51-45.69,75.15-103.59,139.42-171.64,194.34-124.79,100.71-276.15,158.52-436.93,163.63-58.42,1.86-115.85-4.83-173.19-16.64Z"/>
    <path class="st1" d="M154.04,907.14c-2.41-11.53.55-21.23.56-32.54l.24-412.44c31.28-2.8,61.37-3,91.73-2.28l.83,505.98c-34.1-17.53-61.71-37.8-93.36-58.72Z"/>
    <path class="st1" d="M1097.99,512.91c-16.47,124.97-58.92,221.58-133.21,317.6-12.87,16.63-27.38,29.25-41.51,44.35-85.79,91.67-185.79,137.45-308.2,162.66-104.5,14.69-198.98-.06-297.1-37.36l-.53-664.17c85.44,6.36,166.85,21.11,249.54,38.66,58.33,12.38,112.4,27.19,168.49,47.32,74.38,26.02,144.75,57.35,211.35,99.09,6.89,4.32,11.67,10.36,19.58,4.18,3.81-12.7,14.25-11.97,24.64-12l106.95-.32ZM620.77,976.87l80.38-18.98c-30.47-30.19-57.04-57.58-82.32-90.04,84.22-12.22,134.55-51.3,159.13-127.88l64.42-.84,20.7-55.14-82.86-1.25c-2.27-26.46-13.44-45.41-29.11-69.08l103.09-.24c1.72-20.09,2.04-37.96.83-57.24l-326.82-1.38-10.92,58.47c87.85,11.25,134.36-22.74,185,68.13l-167.92,2.24-21.75,55.89,178.49,1.86c26.12.27-18.91,63.12-81.63,70.2-27.53,3.11-53.02,3.09-81.08,3.27l-1.17,61.89c33,31.75,61.72,64.85,93.53,100.13Z"/>
  </g>
  <g>
    <path class="st1" d="M323.08,1302.17l-.18-107.82c96.81,38.23,196.01,64.56,300.52,64.13,123.26-.51,244.64-31.78,353.58-87.11,57.63-29.28,109.93-62.76,158.22-104.91,121.5-106.08,217.74-251.83,262.26-407.47,13.75-48.91,24.45-95.12,32.25-146.5l148.9,1.83-93.5-163.14,114.27-17.82-1.82,163.73-2.17,127.19-.24,675.96c-159.73,28.97-317.32,74.25-462.81,149.3-57.26,31.06-132.14,77.33-174.12,130.05-44.85-49.97-97.32-88.74-155.4-120.48-30.35-16.59-58.53-31.53-90.69-45.37-124.36-53.5-253.95-89.65-389.04-111.56Z"/>
    <path class="st1" d="M1161.95,1508.1c157.68-77.46,329.58-119.63,503.91-146.72l1.59-112.66.97-52.28.53-116.45-2.22-28.73.79-452.48c.04-25.37,3.48-49.12,1.38-74.28-1.83-21.91-2.95-41.89-2.24-65.18l92.73-.46-.55,407.16.34,592.85c-122.6,8.36-241.21,29.07-359.8,57.18-104.33,24.73-204.61,54.99-302.69,97.52-42.93,17.88-81.32,38.48-122.38,61.43,46.57-74.69,112.35-128.98,187.63-166.9Z"/>
    <path class="st1" d="M644.83,1460.57c100.49,40.63,201.3,85.36,265.88,175.49l27.07,37.77c-97.49-54.27-196.85-98.21-303.69-128.52-157.43-44.67-317.49-72.97-480.34-87.09-.04-5.74.34-10.02,1.17-15.85l-.12-356.43c31.2,26.17,61.32,47.28,95.13,67.9l-.62,207.85c138.1,22.63,264.84,48.84,395.52,98.88Z"/>
  </g>
</svg>