<?xml version="1.0" encoding="UTF-8"?>
<svg id="Layer_1" xmlns="http://www.w3.org/2000/svg" version="1.1" viewBox="0 0 1800 1800">
  <!-- Generator: Adobe Illustrator 30.1.0, SVG Export Plug-In . SVG Version: 2.1.1 Build 136)  -->
  <defs>
    <style>
      .st0 {
        fill: #fff;
      }

      .st1 {
        fill: #58b947;
      }

      .st2 {
        fill: #004376;
      }
    </style>
  </defs>
  <path class="st0" d="M-22.17,1821.21V-17.09h1836.17v1838.3H-22.17ZM311.9,1117.26c62.59,51.25,165.93,87.51,242.83,94.1l33.81,2.9c98.09,8.41,250.18-32.7,330.03-94.24l23.8-18.35c29.08-22.41,56.9-45.11,83.11-71.76,45.51-46.28,83.07-97.41,115.26-156.17,56.23-102.65,99.14-244.67,104.1-365.69l67.62.02,20.04-.36-75.64-134.07c-15.38-30.22-32.4-57.18-49.33-86.11l-55.08-94.14-93.69,157.54-14.03,24.87-63.69,109.4-11.78,20.79,92.03.5c-5.1,111.73-30.09,210.98-78.77,307.99-15.85,31.58-34.36,58.92-54.25,87.34-23.87,34.11-49.43,62.87-80.25,88.88-60.22,50.83-111.95,83.55-185.71,105.03-160.97,46.88-307.71,3.06-441.94-101.06-36.73-28.49-66.84-63.71-96.82-100.46-7.96-9.76-14.11-22.48-25.17-26.63,39.69,67.38,83.36,126.71,133.84,179.86,25.29,26.63,51.42,46.67,79.69,69.83ZM359.79,1309.34c114.56,20.29,223.95,55.83,329.57,106.16,40.22,22.28,79.27,42.13,114.91,71.26,25.55,20.89,50.2,40.42,71.56,66.04l16.65,19.97c21.82-31.88,60.06-62.7,89.26-85.93,108.37-86.19,310.4-154.64,445-179.16l-.67-127.88.88-502.49,2.05-133.5,1.27-151.86-89.59,15.11c-3.98.67-3.13,9.19-1.64,12.06l53.21,103.03,20.61,40.03-32.12-1.06-92.79-.52c-9.13,66.89-23.06,128.76-42.46,191.51-29.79,96.31-81.51,186.34-141.39,262.54-29.59,37.65-61.69,69.63-96.46,101.45-30.57,27.97-63.64,49.4-99.45,69.87-90.69,51.83-191.69,81.01-294.38,82.03-88.43.88-172.24-24.11-254.16-60.4l.13,101.72ZM949.33,775.57c8.19-15.29,13.53-30.1,19.64-45.74,20.85-53.41,33.3-108.23,41.03-168.99l-92.01-.2c-8.01-.02-14.54,1.45-18.01,10.57-1.77,1.56-5.82,5.32-7.6,4.07l-8.17-5.75c-55.73-39.26-114.57-68.98-176.91-93.48-47.56-19.27-93.45-33.44-142.93-45.23-69.36-16.53-137.65-30.41-209.3-36.41l.44,628c81.83,34.85,160.12,48.89,247.29,35.49,88.46-20.14,159.96-52.73,228.63-118.66,12.6-12.09,22.95-25.72,34.99-38.51,24.72-26.27,45.26-54.85,62.77-87.55l20.13-37.61ZM218.01,934.74c26.8,20.05,50.74,39.27,78.45,55.75l-.7-479.36c-25.6-.66-50.87-.59-77.05,2.11l-.12,383.94c0,13.07-2.9,24.31-.57,37.56ZM906.07,1662.97l59.04-35.85c55.56-33.74,114.33-55.1,174.82-76.76,74.15-26.34,147.99-43.53,223.75-62.89,65.27-16.68,131.47-24.15,200.51-30.72l.1-946.81-77.73,1.01.11,805.3c0,17.44-.53,31.86-1.29,48.7-99.45,17.91-186.47,38.32-281.52,74.19-36.54,13.79-71.75,27.05-105.71,46.89-26.66,15.57-52.72,28.35-77.84,47.11-45.39,33.91-85.23,76.33-114.24,129.83ZM852.19,1625.37c-40.41-63.43-91.68-97.17-151.86-130.2-6.68-3.67-12.4-7.65-18.72-12.73-125.07-61.99-248.6-92.54-383.65-117.16l.57-195.67-65.12-49.93c-3.47-7-7.87-11.47-14.12-15.85l-1.08,22.11c-.55,11.34.02,21.32.03,33.7l.39,282.51c0,4.6-2.58,13.85.36,14.16,67.21,7.2,131.99,14.59,197.21,30.44,70.24,17.07,138.71,31.85,207.84,54.78,88.19,29.25,170.46,69.08,251.36,120.26l-23.2-36.42Z"/>
  <g>
    <g>
      <path class="st2" d="M372.85,1270.17l-.13-101.72c81.92,36.29,165.73,61.28,254.16,60.4,102.68-1.02,203.69-30.2,294.38-82.03,35.81-20.47,68.88-41.89,99.45-69.87,34.77-31.81,66.87-63.79,96.46-101.45,59.88-76.2,111.6-166.23,141.39-262.54,19.41-62.75,33.33-124.63,42.46-191.51l92.79.52,32.12,1.06-20.61-40.03-53.21-103.03c-1.49-2.88-2.34-11.39,1.64-12.06l89.59-15.11-1.27,151.86-2.05,133.5-.88,502.49.67,127.88c-134.6,24.52-336.64,92.97-445,179.16-29.2,23.22-67.44,54.05-89.26,85.93l-16.65-19.97c-21.36-25.62-46.01-45.16-71.56-66.04-35.64-29.13-74.69-48.98-114.91-71.26-105.63-50.33-215.02-85.87-329.57-106.16Z"/>
      <path class="st2" d="M919.13,1623.79c29-53.5,68.85-95.92,114.24-129.83,25.11-18.76,51.18-31.54,77.84-47.11,33.96-19.84,69.17-33.1,105.71-46.89,95.05-35.86,182.07-56.28,281.52-74.19.76-16.84,1.29-31.26,1.29-48.7l-.11-805.3,77.73-1.01-.1,946.81c-69.04,6.57-135.24,14.04-200.51,30.72-75.76,19.36-149.6,36.55-223.75,62.89-60.49,21.66-119.25,43.03-174.82,76.76l-59.04,35.85Z"/>
      <path class="st2" d="M865.25,1586.19l23.2,36.42c-80.9-51.18-163.16-91.02-251.36-120.26-69.14-22.93-137.6-37.72-207.84-54.78-65.21-15.84-130-23.24-197.21-30.44-2.94-.31-.35-9.56-.36-14.16l-.39-282.51c-.02-12.38-.59-22.35-.03-33.7l1.08-22.11c6.25,4.38,10.66,8.86,14.12,15.85l65.12,49.93-.57,195.67c135.05,24.63,258.58,55.18,383.65,117.16,6.31,5.08,12.04,9.06,18.72,12.73,60.18,33.03,111.45,66.77,151.86,130.2Z"/>
    </g>
    <g>
      <path class="st1" d="M324.96,1078.08c-28.27-23.15-54.4-43.2-79.69-69.83-50.47-53.15-94.15-112.48-133.84-179.86,11.05,4.14,17.2,16.87,25.17,26.63,29.98,36.75,60.09,71.96,96.82,100.46,134.22,104.12,280.97,147.94,441.94,101.06,73.77-21.48,125.49-54.21,185.71-105.03,30.82-26.01,56.38-54.78,80.25-88.88,19.89-28.42,38.41-55.76,54.25-87.34,48.69-97.01,73.67-196.26,78.77-307.99l-92.03-.5,11.78-20.79,63.69-109.4,14.03-24.87,93.69-157.54,55.08,94.14c16.93,28.93,33.95,55.89,49.33,86.11l75.64,134.07-20.04.36-67.62-.02c-4.96,121.02-47.87,263.04-104.1,365.69-32.19,58.76-69.75,109.9-115.26,156.17-26.21,26.65-54.03,49.35-83.11,71.76l-23.8,18.35c-79.85,61.54-231.94,102.65-330.03,94.24l-33.81-2.9c-76.9-6.59-180.24-42.85-242.83-94.1Z"/>
      <g>
        <path class="st2" d="M962.39,736.39l-20.13,37.61c-17.51,32.7-38.05,61.28-62.77,87.55-12.04,12.79-22.39,26.42-34.99,38.51-68.67,65.93-140.16,98.51-228.63,118.66-87.17,13.4-165.46-.64-247.29-35.49l-.44-628c71.65,6,139.94,19.88,209.3,36.41,49.48,11.79,95.38,25.96,142.93,45.23,62.33,24.5,121.18,54.23,176.91,93.48l8.17,5.75c1.77,1.25,5.82-2.51,7.6-4.07,3.46-9.12,9.99-10.59,18.01-10.57l92.01.2c-7.72,60.76-20.17,115.57-41.03,168.99-6.11,15.64-11.45,30.45-19.64,45.74ZM631.44,959.32l58.28-15.79-20.08-22.84-50.21-62.63c68.58-8.14,116-48.93,134.63-120.12l54.56-.62,16.89-54.35-69.65-1.14c-1.08-24.75-10.93-42.55-24.01-65.06l86.51-.21c1.27-18.56,1.49-34.49,1.03-53.79l-274.46-1.44-9.13,55.75,89.04,3.15c25.49.9,54.92,32.4,66.29,60.45l-139.3,1.91c-2.22,3.09-4.69,7.66-5.75,11l-14.04,44.32,155.18,1.9c1.2,6.78-.05,12.9-3.02,17.64-34.73,55.36-84.92,50.54-139.09,51.19l-.99,58.07c26.06,28.68,49.48,57.66,73.52,89.12,2.27,2.97,9.51,4.65,13.81,3.49Z"/>
        <path class="st2" d="M231.07,895.56c-2.33-13.25.57-24.49.57-37.56l.12-383.94c26.19-2.7,51.45-2.77,77.05-2.11l.7,479.36c-27.72-16.48-51.65-35.7-78.45-55.75Z"/>
        <path class="st0" d="M631.44,959.32c-4.3,1.17-11.54-.51-13.81-3.49-24.04-31.46-47.47-60.44-73.52-89.12l.99-58.07c54.16-.64,104.36,4.17,139.09-51.19,2.98-4.74,4.22-10.87,3.02-17.64l-155.18-1.9,14.04-44.32c1.06-3.34,3.53-7.9,5.75-11l139.3-1.91c-11.37-28.06-40.8-59.55-66.29-60.45l-89.04-3.15,9.13-55.75,274.46,1.44c.46,19.3.24,35.23-1.03,53.79l-86.51.21c13.08,22.51,22.93,40.32,24.01,65.06l69.65,1.14-16.89,54.35-54.56.62c-18.63,71.19-66.05,111.98-134.63,120.12l50.21,62.63,20.08,22.84-58.28,15.79Z"/>
      </g>
    </g>
  </g>
</svg>